<svg xmlns="http://www.w3.org/2000/svg" alt="funda logo" class="h-8 md:h-9" viewBox="0 0 99 36" fill="none">
<path d="M74.7735 36H0L6.05989 13.3495C8.16532 5.47485 15.2978 0 23.4469 0H98.2204L92.1605 22.6506C90.0551 30.5234 82.9226 35.9982 74.7717 35.9982L74.7735 36Z" fill="#64C1ED"/>
<path d="M9.72184 14.3498L4.96747 32.1232H74.8548C81.2506 32.1232 86.8464 27.8256 88.4986 21.6484L93.253 3.875H23.3656C16.9699 3.875 11.374 8.17254 9.72184 14.3498Z" fill="#6A281C"/>
<path fill-rule="evenodd" clip-rule="evenodd" d="M69.7357 26.1319C70.4832 26.791 71.5251 27.1196 72.8559 27.1196C73.8129 27.1196 74.6814 26.9246 75.4597 26.5364C76.2271 26.159 76.8284 25.6696 77.2581 25.0684C77.2708 25.0503 77.2997 25.0593 77.2997 25.081V26.8271C77.2997 26.8524 77.3195 26.8722 77.3448 26.8722H80.2411C80.2664 26.8722 80.2863 26.8524 80.2863 26.8271V19.4184C80.2863 17.8763 79.8006 16.6719 78.8273 15.8034C77.854 14.9348 76.4691 14.5015 74.6742 14.5015C73.3127 14.5015 72.1661 14.7633 71.2398 15.2869C70.8263 15.5181 70.4435 15.7799 70.0896 16.0724C70.0697 16.0887 70.0679 16.1176 70.0842 16.1356L71.8032 18.1742C71.8194 18.1941 71.8483 18.1959 71.8682 18.1797C72.3882 17.7246 72.9046 17.4483 73.3849 17.2876C73.7533 17.1522 74.1758 17.0836 74.6525 17.0836C75.5355 17.0836 76.1946 17.2858 76.628 17.6903C77.0613 18.0948 77.2798 18.6257 77.2798 19.2847V19.3967C77.2798 19.422 77.26 19.4418 77.2347 19.4418H74.091C72.399 19.4418 71.0683 19.8012 70.095 20.5198C69.1217 21.2385 68.636 22.2334 68.636 23.5064C68.636 24.5844 69.0025 25.4602 69.7357 26.1337V26.1319ZM74.8548 24.4039C74.4954 24.5086 74.1289 24.561 73.7551 24.561C72.4984 24.561 71.87 24.1204 71.87 23.2356C71.87 22.7571 72.065 22.3833 72.4532 22.1124C72.8577 21.8434 73.524 21.708 74.4521 21.708H77.2473C77.2762 21.708 77.2979 21.7351 77.2907 21.7621C77.1931 22.2027 77.0505 22.6993 76.7273 23.1417C76.5142 23.4324 76.1802 23.7574 75.866 23.9524C75.5518 24.1474 75.2141 24.2973 74.8548 24.4021V24.4039Z" fill="white"/>
<path fill-rule="evenodd" clip-rule="evenodd" d="M57.3162 26.6899C58.0258 26.977 58.7571 27.1196 59.5101 27.1196C60.31 27.1196 61.0323 26.9535 61.6823 26.6212C62.3251 26.2854 62.8614 25.8285 63.293 25.2525C63.3056 25.2345 63.3345 25.2435 63.3345 25.2652V26.8253C63.3345 26.8506 63.3544 26.8704 63.3797 26.8704H66.3663C66.3915 26.8704 66.4114 26.8506 66.4114 26.8253V9.06815C66.4114 9.04287 66.3915 9.02301 66.3663 9.02301H63.3797C63.3544 9.02301 63.3345 9.04287 63.3345 9.06815V16.1483C63.3345 16.1699 63.3074 16.179 63.293 16.1627C62.8777 15.6156 62.3558 15.1894 61.7275 14.8825C61.0937 14.5665 60.3696 14.4076 59.5552 14.4076C58.7408 14.4076 58.0168 14.5592 57.2927 14.8608C56.5831 15.1479 55.9583 15.5704 55.4148 16.1284C54.8713 16.6863 54.4343 17.3581 54.102 18.1417C53.786 18.9254 53.6271 19.8012 53.6271 20.7654C53.6271 21.7296 53.7933 22.6289 54.1255 23.4125C54.4578 24.1818 54.8947 24.8444 55.4382 25.4024C55.9818 25.9604 56.6065 26.3901 57.3162 26.6917V26.6899ZM60.1312 24.1836C62.038 24.1836 63.5837 22.6379 63.5837 20.7311C63.5837 18.8243 62.038 17.2768 60.1312 17.2768C58.2244 17.2768 56.6788 18.8225 56.6788 20.7311C56.6788 22.6397 58.2244 24.1836 60.1312 24.1836Z" fill="white"/>
<path d="M40.1296 14.7019C40.1296 14.6766 40.1495 14.6568 40.1748 14.6568H43.2065C43.2318 14.6568 43.2517 14.6766 43.2517 14.7019V16.123C43.2517 16.1447 43.2806 16.1537 43.2932 16.1356C43.6796 15.6048 44.1617 15.1876 44.745 14.8825C45.3625 14.5665 46.0577 14.4076 46.8269 14.4076C48.2751 14.4076 49.4217 14.8608 50.265 15.7655C51.1245 16.6557 51.5542 17.8998 51.5542 19.4978V26.8271C51.5542 26.8524 51.5344 26.8723 51.5091 26.8723H48.4177C48.3925 26.8723 48.3726 26.8524 48.3726 26.8271V19.738C48.3726 18.3295 47.2314 17.1884 45.823 17.1884C44.4145 17.1884 43.2733 18.3295 43.2733 19.738V26.8271C43.2733 26.8524 43.2535 26.8723 43.2282 26.8723H40.1766C40.1513 26.8723 40.1314 26.8524 40.1314 26.8271V14.7019H40.1296Z" fill="white"/>
<path d="M29.2774 14.7019C29.2774 14.6766 29.2575 14.6567 29.2323 14.6567H26.1427C26.1175 14.6567 26.0976 14.6766 26.0976 14.7019V21.986C26.0976 23.6003 26.5129 24.8589 27.3417 25.7635C28.1705 26.6682 29.3406 27.1214 30.8484 27.1214C31.6031 27.1214 32.2803 26.9625 32.8834 26.6465C33.4648 26.3413 33.9487 25.9224 34.3351 25.3934C34.3478 25.3753 34.3767 25.3843 34.3767 25.406V26.8271C34.3767 26.8524 34.3965 26.8722 34.4218 26.8722L37.4536 26.8505C37.4788 26.8505 37.4987 26.8307 37.4987 26.8054V14.6802C37.4987 14.6549 37.4788 14.6351 37.4536 14.6351L34.3785 14.6567C34.3532 14.6567 34.3333 14.6766 34.3333 14.7019V21.838C34.3333 23.2338 33.2012 24.3659 31.8054 24.3659C30.4096 24.3659 29.2774 23.2338 29.2774 21.838V14.7019Z" fill="white"/>
<path d="M24.6874 9.10249C24.6946 9.07359 24.6729 9.04651 24.644 9.04651H23.1543C22.1594 9.04651 21.3216 9.12957 20.6426 9.29569C19.9799 9.46182 19.4437 9.74892 19.0374 10.1552C18.6455 10.547 18.3584 11.0743 18.1779 11.7388C18.0117 12.4015 17.9287 13.2321 17.9287 14.227V14.6116C17.9287 14.6369 17.9088 14.6568 17.8835 14.6568H15.9605C15.9352 14.6568 15.9153 14.6766 15.9153 14.7019V17.4159C15.9153 17.4412 15.9352 17.461 15.9605 17.461H17.8835C17.9088 17.461 17.9287 17.4809 17.9287 17.5062V26.8271C17.9287 26.8524 17.9485 26.8723 17.9738 26.8723H20.9821C21.0074 26.8723 21.0272 26.8524 21.0272 26.8271V17.5062C21.0272 17.4809 21.0471 17.461 21.0724 17.461H23.9236C23.9489 17.461 23.9687 17.4412 23.9687 17.4159V14.7019C23.9687 14.6766 23.9489 14.6568 23.9236 14.6568H21.0724C21.0471 14.6568 21.0272 14.6369 21.0272 14.6116V14.0681C21.0272 13.6005 21.0489 13.2303 21.0959 12.9594C21.141 12.6723 21.2457 12.4538 21.4119 12.304C21.5924 12.1378 21.8416 12.0331 22.1576 11.988C22.4736 11.9284 22.9034 11.8977 23.4469 11.8977H23.9326C23.9525 11.8977 23.9705 11.8832 23.9759 11.8634L24.6856 9.10429L24.6874 9.10249Z" fill="white"/>
<script xmlns=""/></svg>